<?xml version="1.0" encoding="utf-8"?>
<!-- Generator: Adobe Illustrator 18.0.0, SVG Export Plug-In . SVG Version: 6.00 Build 0)  -->
<!DOCTYPE svg PUBLIC "-//W3C//DTD SVG 1.1//EN" "http://www.w3.org/Graphics/SVG/1.1/DTD/svg11.dtd">
<svg version="1.1" id="Layer_1" xmlns="http://www.w3.org/2000/svg" xmlns:xlink="http://www.w3.org/1999/xlink" x="0px" y="0px"
	 width="50px" height="50px" viewBox="0 0 50 50" enable-background="new 0 0 50 50" xml:space="preserve">
<path fill="none" stroke="#000000" stroke-width="2.25" stroke-linecap="round" stroke-linejoin="round" stroke-miterlimit="10" d="
	M30.6,24.9c1-4.2-0.8-7.4-4.8-7.4c-4.1,0-7.5,4.1-7.5,8.4c0,3.7,2.6,6.2,5.7,6.1C27.2,31.9,29.8,28.5,30.6,24.9z"/>
<path fill="none" stroke="#000000" stroke-width="2.25" stroke-linecap="round" stroke-linejoin="round" stroke-miterlimit="10" d="
	M30.9,23.1c-0.6,3.9-0.7,8.1,2.4,7.8c3.1-0.3,7-10.6,0.3-16c-2.4-1.9-4.9-2.7-7.9-2.7c-7,0-12.7,5.7-12.7,12.7s5.7,12.7,12.7,12.7
	c3.7,0,7-1.6,9.3-4"/>
</svg>
