<?xml version="1.0" encoding="utf-8"?>
<!-- Generator: Adobe Illustrator 18.0.0, SVG Export Plug-In . SVG Version: 6.00 Build 0)  -->
<!DOCTYPE svg PUBLIC "-//W3C//DTD SVG 1.1//EN" "http://www.w3.org/Graphics/SVG/1.1/DTD/svg11.dtd">
<svg version="1.1" id="Layer_1" xmlns="http://www.w3.org/2000/svg" xmlns:xlink="http://www.w3.org/1999/xlink" x="0px" y="0px"
	 width="69.8px" height="57.1px" viewBox="0 0 69.8 57.1" enable-background="new 0 0 69.8 57.1" xml:space="preserve">
<path fill="#231F20" d="M66.3,20.2L34.9,0L3.5,20.2c-1.4,0.7-1.9,2.4-1.2,3.8s2.4,1.9,3.8,1.2l3.3-1.9l5.3,33.8h40.5l5.3-33.8
	l3.3,1.9c1.4,0.7,3.1,0.2,3.8-1.2S67.7,20.9,66.3,20.2z M34.9,46.1c-1.6,0-2.9-1.3-2.9-2.9c0-1.6,1.3-2.9,2.9-2.9
	c1.6,0,2.9,1.3,2.9,2.9C37.8,44.8,36.5,46.1,34.9,46.1z M34.9,36c-4,0-7.3-3.2-7.3-7.3c0-4,3.2-7.3,7.3-7.3c4,0,7.3,3.2,7.3,7.3
	C42.2,32.8,38.9,36,34.9,36z"/>
</svg>
