<?xml version="1.0" encoding="utf-8"?>
<!-- Generator: Adobe Illustrator 18.0.0, SVG Export Plug-In . SVG Version: 6.00 Build 0)  -->
<!DOCTYPE svg PUBLIC "-//W3C//DTD SVG 1.1//EN" "http://www.w3.org/Graphics/SVG/1.1/DTD/svg11.dtd">
<svg version="1.1" id="Layer_1" xmlns="http://www.w3.org/2000/svg" xmlns:xlink="http://www.w3.org/1999/xlink" x="0px" y="0px"
	 width="50px" height="50px" viewBox="0 0 50 50" enable-background="new 0 0 50 50" xml:space="preserve">
<circle fill="none" stroke="#000000" stroke-width="2" stroke-miterlimit="10" cx="25.2" cy="15.2" r="11.4"/>
<path fill="none" stroke="#000000" stroke-width="2" stroke-linecap="round" stroke-miterlimit="10" d="M17.1,15.2
	c0-4.5,3.6-8.1,8.1-8.1"/>
<path fill="none" stroke="#000000" stroke-width="2" stroke-miterlimit="10" d="M26.5,26.4v3.7c0,0.5-0.6,0.8-1.3,0.8
	c-0.7,0-1.3-0.4-1.3-0.8v-3.7"/>
<path fill="none" stroke="#000000" stroke-width="2" stroke-miterlimit="10" d="M29,30.9l-1.1,11.9c0,1.1-1.2,2.1-2.7,2.1
	c-1.5,0-2.7-0.9-2.7-2.1l-1.1-11.9"/>
<path fill="none" stroke="#000000" stroke-width="2" stroke-miterlimit="10" d="M27,28.8c1.2,0.4,2,1.2,2,2.1c0,1.3-1.7,2.4-3.8,2.4
	c-2.1,0-3.8-1.1-3.8-2.4c0-0.9,0.8-1.7,2-2.1"/>
<path fill="none" stroke="#000000" stroke-width="2" stroke-linecap="round" stroke-miterlimit="10" d="M28.1,40.3
	c0,1-1.3,1.7-2.9,1.7c-1.6,0-2.9-0.8-2.9-1.7"/>
</svg>
