<?xml version="1.0" encoding="utf-8"?>
<!-- Generator: Adobe Illustrator 18.0.0, SVG Export Plug-In . SVG Version: 6.00 Build 0)  -->
<!DOCTYPE svg PUBLIC "-//W3C//DTD SVG 1.1//EN" "http://www.w3.org/Graphics/SVG/1.1/DTD/svg11.dtd">
<svg version="1.1" id="Layer_1" xmlns="http://www.w3.org/2000/svg" xmlns:xlink="http://www.w3.org/1999/xlink" x="0px" y="0px"
	 width="50px" height="50px" viewBox="0 0 50 50" enable-background="new 0 0 50 50" xml:space="preserve">
<path fill="#231F20" d="M32.4,26.3c1.8-1.9,2.9-4.4,2.9-7.2c0-5.7-4.6-10.3-10.3-10.3c-5.7,0-10.3,4.6-10.3,10.3
	c0,2.8,1.1,5.3,2.9,7.2c-5.9,1.7-9.9,5.4-9.9,9.8c0,4.8,14.4,5.1,17.3,5.1c2.9,0,17.3-0.2,17.3-5.1C42.3,31.8,38.3,28.1,32.4,26.3z
	 M25,10.8c4.6,0,8.3,3.7,8.3,8.3c0,4.6-3.7,8.3-8.3,8.3s-8.3-3.7-8.3-8.3C16.7,14.6,20.4,10.8,25,10.8z M25,39.2
	c-9.8,0-15.3-1.8-15.3-3.1c0-3.8,4.1-7,9.8-8.3c1.6,1,3.4,1.6,5.4,1.6c2,0,3.9-0.6,5.4-1.6c5.7,1.3,9.8,4.5,9.8,8.3
	C40.3,37.4,34.8,39.2,25,39.2z"/>
</svg>
